<svg width="164" height="60" viewBox="0 0 164 60" fill="none" xmlns="http://www.w3.org/2000/svg">
<path d="M36.7684 17.8435L36.7684 31.4929C36.7684 31.7142 36.689 31.9264 36.5478 32.0828C36.4066 32.2393 36.2151 32.3272 36.0154 32.3272L32.1262 32.3272C31.9265 32.3271 31.735 32.2391 31.5938 32.0827C31.4526 31.9263 31.3733 31.7141 31.3732 31.4929L31.3732 9.2914C31.3732 9.07015 31.4525 8.85796 31.5937 8.70151C31.7349 8.54506 31.9265 8.45716 32.1262 8.45716L35.7252 8.45716C35.9249 8.45716 36.1164 8.54506 36.2576 8.70151C36.3988 8.85796 36.4782 9.07015 36.4782 9.2914L36.4782 12.418C36.4782 12.418 37.7647 7.95802 41.5828 7.95802C41.5828 7.95802 45.3595 7.45225 46.895 12.0961C46.895 12.0961 48.1816 7.95802 52.0827 7.95802C52.0827 7.95802 57.8842 7.57584 57.8842 14.2266L57.9284 17.8894L57.9284 31.5389C57.9284 31.7601 57.8491 31.9723 57.7079 32.1288C57.5666 32.2852 57.3751 32.3731 57.1754 32.3731L53.2859 32.3731C53.0862 32.373 52.8947 32.2851 52.7535 32.1287C52.6123 31.9723 52.533 31.7601 52.5329 31.5389L52.4974 16.648C52.6079 13.2761 50.1457 13.5215 50.1457 13.5215C47.0471 13.5829 47.3452 17.8894 47.3452 17.8894L47.3452 31.5389C47.3452 31.7601 47.2659 31.9723 47.1247 32.1288C46.9835 32.2852 46.7919 32.3731 46.5922 32.3731L42.7031 32.3731C42.5034 32.373 42.3119 32.2851 42.1707 32.1287C42.0295 31.9723 41.9501 31.7601 41.9501 31.5389L41.9501 16.9849C41.9501 16.9849 42.1775 13.4906 39.4105 13.4906C39.4108 13.4906 36.6717 13.0922 36.7684 17.8435ZM137.021 17.8026L137.021 31.4517C137.021 31.6729 136.941 31.8851 136.8 32.0415C136.659 32.1979 136.467 32.2859 136.268 32.286L132.223 32.3728C132.023 32.3727 131.832 32.2847 131.69 32.1283C131.549 31.9719 131.47 31.7598 131.47 31.5385L131.47 16.9849C131.47 16.9849 131.697 13.4906 128.931 13.4906C128.931 13.4906 126.288 13.3464 126.288 18.8252L126.288 31.4925C126.288 31.7138 126.209 31.9259 126.067 32.0823C125.926 32.2388 125.735 32.3267 125.535 32.3268L121.646 32.3268C121.446 32.3267 121.254 32.2388 121.113 32.0823C120.972 31.9259 120.893 31.7138 120.893 31.4925L120.893 9.2914C120.893 9.07018 120.972 8.85804 121.113 8.70162C121.254 8.54519 121.446 8.45726 121.646 8.45716L125.245 8.45716C125.444 8.45716 125.636 8.54506 125.777 8.70151C125.918 8.85796 125.998 9.07015 125.998 9.2914L125.998 12.418C125.998 12.418 127.284 7.95802 131.102 7.95802C131.102 7.95802 135.192 7.27054 136.57 12.0097C136.57 12.0093 137.021 12.987 137.021 17.8026ZM108.939 7.86606C103.966 7.86606 99.9334 12.5099 99.9334 20.3263C99.9334 27.2081 103.046 32.7866 108.939 32.7866C114.5 32.7866 117.945 27.2081 117.945 20.3263C117.945 12.6479 113.913 7.86606 108.939 7.86606ZM112.078 20.6022C112.078 23.5448 111.746 25.1081 111.746 25.1081C111.274 28.2189 109.236 28.2233 108.935 28.2067C108.611 28.2211 106.555 28.1887 106.13 25.1081C106.13 25.1081 105.798 23.5448 105.798 20.6022L105.798 20.1119C105.798 17.1692 106.13 15.6059 106.13 15.6059C106.555 12.5254 108.611 12.493 108.935 12.507C109.236 12.4904 111.274 12.4945 111.746 15.6059C111.746 15.6059 112.078 17.1692 112.078 20.1119L112.078 20.6022ZM97.6761 12.3871L97.6761 9.20165C97.676 8.98043 97.5966 8.76829 97.4554 8.61187C97.3142 8.45544 97.1227 8.36751 96.9231 8.36741L84.0676 8.36741C83.8679 8.36741 83.6764 8.45531 83.5351 8.61176C83.3939 8.76821 83.3146 8.9804 83.3146 9.20165L83.3146 12.3624C83.3147 12.5836 83.3941 12.7958 83.5352 12.9522C83.6764 13.1086 83.8679 13.1966 84.0676 13.1967L90.7732 13.1967L82.8362 25.953C82.8362 25.953 82.5234 26.4702 82.5337 27.0414L82.5337 30.9217C82.5337 30.9217 82.4819 32.2521 83.8438 31.48C83.8438 31.48 86.2629 29.8608 90.319 29.8608C90.319 29.8608 94.3247 29.8057 96.9954 31.6194C96.9954 31.6194 98.104 32.1778 98.104 30.95L98.104 27.5726C98.104 27.5726 98.2046 26.6787 97.1465 26.1207C97.1465 26.1207 94.0727 24.2507 90.0418 24.5575L97.6761 12.3871ZM28.3715 28.3568L27.154 26.3036C26.7665 25.537 26.7944 24.6785 26.7944 24.6785L26.7944 15.2072C26.9604 7.02299 18.7707 7.72813 18.7707 7.72813C11.4904 7.72813 10.415 14.0052 10.415 14.0052C10.1116 15.2672 10.994 15.2977 10.994 15.2977L14.5515 15.6975C14.5515 15.6975 15.1581 15.8513 15.3789 15.0513C15.3789 15.0513 15.8474 12.3128 18.4673 12.3128C21.3179 12.3128 21.2884 15.0233 21.2884 15.0233L21.2884 17.2925C15.5977 17.5032 12.9605 19.2534 12.9605 19.2534C9.44687 21.4603 9.66799 25.8438 9.66799 25.8438C9.66799 32.9856 15.8102 32.6788 15.8102 32.6788C19.7389 32.6788 22.0629 29.4912 22.0629 29.4912C22.7545 30.8404 24.0274 32.1271 24.0274 32.1271C24.6642 32.8921 25.3279 32.2499 25.3279 32.2499L28.2055 29.5221C28.8416 29.0005 28.3715 28.3568 28.3715 28.3568ZM17.7275 28.2685C15.8796 28.2685 15.1926 26.234 15.4994 24.2345C15.8065 22.235 17.4015 20.6636 21.2887 20.7096L21.2887 21.9253C21.4265 27.236 19.2658 28.2685 17.7275 28.2685ZM80.0543 28.3568L78.8371 26.3036C78.4496 25.537 78.4772 24.6785 78.4772 24.6785L78.4772 15.2072C78.6432 7.02299 70.4535 7.72813 70.4535 7.72813C63.1732 7.72813 62.0978 14.0052 62.0978 14.0052C61.7943 15.2672 62.6768 15.2977 62.6768 15.2977L66.2343 15.6975C66.2343 15.6975 66.8409 15.8513 67.0617 15.0513C67.0617 15.0513 67.5302 12.3128 70.15 12.3128C73.0007 12.3128 72.9711 15.0233 72.9711 15.0233L72.9711 17.2925C67.2808 17.5032 64.6433 19.2534 64.6433 19.2534C61.1296 21.4603 61.3508 25.8438 61.3508 25.8438C61.3508 32.9856 67.493 32.6788 67.493 32.6788C71.4216 32.6788 73.7457 29.4912 73.7457 29.4912C74.4376 30.8404 75.7099 32.1271 75.7099 32.1271C76.3467 32.8921 77.0107 32.2499 77.0107 32.2499L79.8879 29.5221C80.5244 29.0005 80.0543 28.3568 80.0543 28.3568ZM69.4103 28.2685C67.5624 28.2685 66.8754 26.234 67.1822 24.2345C67.4893 22.235 69.0843 20.6636 72.9711 20.7096L72.9711 21.9253C73.1093 27.236 70.9489 28.2685 69.4103 28.2685Z" fill="white"/>
<path d="M84.5265 41.1925C84.5265 41.1925 85.1287 42.0568 84.157 42.8023C84.157 42.8023 73.776 52.0006 56.3454 52.0006C56.3454 52.0006 38.4029 52.9811 23.4209 37.9019C23.4209 37.9019 22.8957 37.3911 23.2217 36.9162C23.2217 36.9162 23.5132 36.4793 24.2679 36.9545C24.2679 36.9545 38.3614 46.6828 56.871 46.6828C56.871 46.6828 69.7364 47.2345 82.9338 40.9821C82.9338 40.9821 83.9853 40.3786 84.5265 41.1925Z" fill="#F3971B"/>
<path d="M88.5017 47.0061C88.5017 47.0061 88.1764 47.6332 88.5761 47.7733C88.5761 47.7733 89.0277 47.9686 89.5907 47.3897C89.5907 47.3897 93.6974 43.4158 93.7963 36.1807C93.7963 36.1807 93.8265 35.277 93.4992 35.0299C93.4992 35.0299 92.2126 33.7691 87.5864 34.1527C87.5864 34.1527 83.5538 34.4543 81.3522 36.6194C81.3522 36.6194 81.1543 36.8111 81.1543 37.0575C81.1543 37.0575 81.1069 37.5897 82.3171 37.3591C82.3171 37.3591 86.3493 36.7283 88.7491 37.0575C88.7491 37.0575 89.9865 37.2219 90.3328 37.6882C90.3328 37.6882 90.9019 38.209 90.6047 39.935C90.6047 39.9358 89.788 44.3205 88.5017 47.0061Z" fill="#F3971B"/>
<path d="M142.392 31.4912L142.392 29.6752L144.208 29.6752L144.208 31.4912L142.392 31.4912ZM146.076 23.6972L146.076 22.017L147.892 22.017L147.892 23.6972L146.076 23.6972ZM146.076 31.4912L146.076 24.6279L147.892 24.6279L147.892 31.4912L146.076 31.4912ZM156.002 31.4912L154.186 31.4912L154.186 27.9884C154.186 27.2474 154.147 26.7692 154.07 26.5537C153.992 26.334 153.865 26.1638 153.689 26.0432C153.516 25.9226 153.307 25.8622 153.062 25.8622C152.747 25.8622 152.465 25.9484 152.215 26.1207C151.965 26.2931 151.793 26.5214 151.698 26.8058C151.608 27.0901 151.562 27.6158 151.562 28.3827L151.562 31.4912L149.746 31.4912L149.746 24.6279L151.433 24.6279L151.433 25.636C152.032 24.8605 152.786 24.4728 153.695 24.4728C154.096 24.4728 154.462 24.546 154.794 24.6925C155.125 24.8347 155.375 25.0178 155.543 25.2418C155.716 25.4659 155.834 25.7201 155.899 26.0044C155.968 26.2888 156.002 26.6959 156.002 27.2259L156.002 31.4912Z" fill="white"/>
</svg>
