<svg width="9" height="5" viewBox="0 0 9 5" fill="none" xmlns="http://www.w3.org/2000/svg">
<path d="M0.441884 -6.86646e-05H8.39123C8.47171 0.000114441 8.5506 0.0162287 8.61941 0.0465388C8.68821 0.076849 8.74433 0.120207 8.78172 0.171947C8.8191 0.223688 8.83634 0.28185 8.83158 0.340174C8.82682 0.398498 8.80023 0.454774 8.75469 0.502946L4.78002 4.67069C4.61529 4.84349 4.21871 4.84349 4.05354 4.67069L0.0788636 0.502946C0.0328567 0.454875 0.00587717 0.39857 0.000856288 0.340149C-0.00416459 0.281728 0.0129652 0.223425 0.0503846 0.171576C0.0878039 0.119726 0.144082 0.0763121 0.213103 0.046051C0.282125 0.0157895 0.361251 -0.000161171 0.441884 -6.86646e-05Z" fill="#0F1111"/>
</svg>
