<svg width="46" height="30" viewBox="0 0 46 30" fill="none" xmlns="http://www.w3.org/2000/svg">
<path fill-rule="evenodd" clip-rule="evenodd" d="M1.85729 0.131409C1.3647 0.131409 0.892296 0.284708 0.543987 0.557575C0.195678 0.830442 0 1.20053 0 1.58642C0 1.97232 0.195678 2.34241 0.543987 2.61527C0.892296 2.88814 1.3647 3.04144 1.85729 3.04144H5.98046L10.854 18.3191C11.2682 19.614 12.7484 20.5016 14.4515 20.5016H18.5729C15.5176 20.5016 13.001 22.4731 13.001 24.8666C13.001 27.2601 15.5176 29.2317 18.5729 29.2317C21.6281 29.2317 24.1447 27.2601 24.1447 24.8666C24.1447 22.4731 21.6281 20.5016 18.5729 20.5016H35.2885C32.2332 20.5016 29.7166 22.4731 29.7166 24.8666C29.7166 27.2601 32.2332 29.2317 35.2885 29.2317C38.3437 29.2317 40.8603 27.2601 40.8603 24.8666C40.8603 22.4731 38.3437 20.5016 35.2885 20.5016H37.6119C39.289 20.5016 40.7136 19.6286 41.1538 18.3627L45.9678 4.49645H42.0787L37.6101 17.5916H14.4497L9.57803 2.31393C9.37679 1.68715 8.91289 1.13141 8.26061 0.735696C7.60834 0.339983 6.80543 0.127198 5.98046 0.131409H1.85729ZM18.5729 23.4116C19.6204 23.4116 20.4302 24.046 20.4302 24.8666C20.4302 25.6873 19.6204 26.3217 18.5729 26.3217C17.5254 26.3217 16.7156 25.6873 16.7156 24.8666C16.7156 24.046 17.5254 23.4116 18.5729 23.4116ZM35.2885 23.4116C36.336 23.4116 37.1457 24.046 37.1457 24.8666C37.1457 25.6873 36.336 26.3217 35.2885 26.3217C34.2409 26.3217 33.4312 25.6873 33.4312 24.8666C33.4312 24.046 34.2409 23.4116 35.2885 23.4116Z" fill="white"/>
</svg>
