<svg width="23" height="29" viewBox="0 0 23 29" fill="none" xmlns="http://www.w3.org/2000/svg">
<path d="M11.2052 6.37687C10.235 6.39505 9.2914 6.70465 8.49354 7.2665C7.69569 7.82836 7.07947 8.61725 6.72281 9.5334C6.36615 10.4495 6.28506 11.4518 6.48981 12.4135C6.69456 13.3751 7.17594 14.253 7.87308 14.936C8.57023 15.619 9.45182 16.0765 10.4064 16.2506C11.3609 16.4248 12.3456 16.3078 13.2358 15.9144C14.1261 15.521 14.8819 14.8689 15.4077 14.0405C15.9336 13.2122 16.2058 12.2448 16.19 11.2607C16.1688 9.94102 15.6318 8.68511 14.6969 7.76922C13.7621 6.85333 12.5061 6.35249 11.2052 6.37687ZM11.3396 14.757C10.6759 14.7695 10.0238 14.582 9.46589 14.2182C8.90799 13.8545 8.4693 13.3308 8.20531 12.7135C7.94132 12.0962 7.86387 11.4129 7.98277 10.7501C8.10167 10.0873 8.41157 9.47468 8.87328 8.98977C9.335 8.50485 9.92779 8.1694 10.5767 8.02584C11.2256 7.88228 11.9015 7.93705 12.5188 8.18323C13.1362 8.42941 13.6674 8.85594 14.0451 9.40889C14.4229 9.96183 14.6303 10.6164 14.6411 11.2897C14.6555 12.1926 14.3159 13.0652 13.6967 13.7154C13.0776 14.3657 12.2297 14.7403 11.3396 14.757ZM11.1043 0.091752C8.16131 0.150377 5.35881 1.39078 3.31162 3.54085C1.26442 5.69092 0.139699 8.57508 0.184184 11.5606C0.249121 15.608 2.16909 19.8721 5.73656 23.8918C7.34686 25.7151 9.15254 27.3506 11.1203 28.7681C11.2519 28.858 11.4077 28.9047 11.5666 28.9017C11.7254 28.8987 11.8796 28.8463 12.0083 28.7514C13.9294 27.2611 15.6815 25.5589 17.2324 23.6763C20.6687 19.5253 22.4508 15.1958 22.3858 11.1445C22.3345 8.15911 21.1179 5.31882 19.003 3.24676C16.8881 1.1747 14.0475 0.0400581 11.1043 0.091752ZM11.5382 27.1322C9.57766 25.6522 1.85839 19.3383 1.73313 11.5316C1.6919 8.96178 2.65871 6.47834 4.42088 4.62763C6.18305 2.77691 8.59622 1.71051 11.1295 1.66303C13.6628 1.61555 16.1088 2.59088 17.9293 4.37445C19.7497 6.15802 20.7956 8.60374 20.8369 11.1736C20.9621 18.9802 13.45 25.5796 11.5382 27.1322Z" fill="white"/>
</svg>
