<svg width="19" height="16" viewBox="0 0 19 16" fill="none" xmlns="http://www.w3.org/2000/svg">
<path d="M1.46034 3.14276C1.08531 3.14259 0.724726 3.01136 0.453306 2.77624C0.181885 2.54113 0.0204353 2.22017 0.0024128 1.87986C-0.0156097 1.53955 0.111174 1.20599 0.356495 0.948294C0.601816 0.690595 0.946869 0.528515 1.32015 0.495639L1.46034 0.489448H17.0373C17.4123 0.489616 17.7729 0.620854 18.0443 0.855968C18.3158 1.09108 18.4772 1.41204 18.4952 1.75235C18.5132 2.09266 18.3865 2.42622 18.1411 2.68392C17.8958 2.94162 17.5508 3.1037 17.1775 3.13657L17.0373 3.14276H1.46034ZM1.46034 9.33383C1.07304 9.33383 0.701593 9.19406 0.427727 8.94526C0.15386 8.69647 1.90735e-06 8.35903 1.90735e-06 8.00717C1.90735e-06 7.65532 0.15386 7.31788 0.427727 7.06909C0.701593 6.82029 1.07304 6.68052 1.46034 6.68052H17.0373C17.4246 6.68052 17.796 6.82029 18.0699 7.06909C18.3438 7.31788 18.4976 7.65532 18.4976 8.00717C18.4976 8.35903 18.3438 8.69647 18.0699 8.94526C17.796 9.19406 17.4246 9.33383 17.0373 9.33383H1.46034ZM1.46034 15.5249C1.07304 15.5249 0.701593 15.3851 0.427727 15.1363C0.15386 14.8875 1.90735e-06 14.5501 1.90735e-06 14.1982C1.90735e-06 13.8464 0.15386 13.509 0.427727 13.2602C0.701593 13.0114 1.07304 12.8716 1.46034 12.8716H17.0373C17.4246 12.8716 17.796 13.0114 18.0699 13.2602C18.3438 13.509 18.4976 13.8464 18.4976 14.1982C18.4976 14.5501 18.3438 14.8875 18.0699 15.1363C17.796 15.3851 17.4246 15.5249 17.0373 15.5249H1.46034Z" fill="white"/>
</svg>
