<svg width="20" height="20" viewBox="0 0 20 20" fill="none" xmlns="http://www.w3.org/2000/svg">
<path fill-rule="evenodd" clip-rule="evenodd" d="M12.3534 13.3162C10.8346 14.5035 8.90882 15.0767 6.97153 14.9181C5.03423 14.7596 3.23252 13.8813 1.93643 12.4637C0.640342 11.0461 -0.0517372 9.19679 0.00233537 7.29556C0.056408 5.39432 0.852527 3.5855 2.22718 2.2406C3.60184 0.895704 5.45068 0.116819 7.39399 0.0639171C9.3373 0.0110151 11.2275 0.688112 12.6765 1.95614C14.1255 3.22417 15.0232 4.98688 15.1852 6.88224C15.3473 8.77759 14.7614 10.6617 13.5479 12.1476L19.3579 17.8307C19.4409 17.9064 19.5075 17.9977 19.5537 18.0991C19.5999 18.2006 19.6247 18.31 19.6267 18.4211C19.6287 18.5321 19.6078 18.6424 19.5653 18.7453C19.5228 18.8483 19.4596 18.9418 19.3793 19.0203C19.2991 19.0988 19.2035 19.1607 19.0982 19.2023C18.993 19.2439 18.8803 19.2643 18.7668 19.2624C18.6533 19.2604 18.5414 19.2361 18.4378 19.1909C18.3341 19.1457 18.2408 19.0806 18.1634 18.9993L12.3534 13.3162ZM3.42211 11.5942C2.59506 10.785 2.03177 9.75404 1.80342 8.63169C1.57508 7.50934 1.69194 6.34595 2.13922 5.28856C2.58651 4.23116 3.34414 3.32722 4.31639 2.69098C5.28863 2.05473 6.43183 1.71474 7.60152 1.71397C8.77121 1.7132 9.91488 2.05169 10.888 2.68665C11.8611 3.32162 12.62 4.22456 13.0687 5.28136C13.5175 6.33816 13.6359 7.5014 13.4091 8.62405C13.1823 9.7467 12.6205 10.7784 11.7945 11.5887L11.7889 11.5942L11.7832 11.5986C10.6734 12.6819 9.16947 13.2899 7.60175 13.2891C6.03403 13.2883 4.53075 12.6787 3.42211 11.5942Z" fill="#1E1E1E"/>
</svg>
