<svg width="13" height="8" viewBox="0 0 13 8" fill="none" xmlns="http://www.w3.org/2000/svg">
<path d="M1.26256 0.0905032L12.3829 0.0905032C12.4955 0.0907688 12.6058 0.114138 12.7021 0.158096C12.7983 0.202054 12.8768 0.264934 12.9291 0.339971C12.9814 0.415007 13.0055 0.499358 12.9989 0.583941C12.9922 0.668526 12.955 0.750141 12.8913 0.820003L7.33117 6.86429C7.10073 7.1149 6.54595 7.1149 6.31489 6.86429L0.754731 0.820003C0.690372 0.750287 0.652631 0.668631 0.645607 0.583905C0.638583 0.49918 0.662546 0.414627 0.714892 0.339431C0.767238 0.264236 0.845965 0.201274 0.942519 0.157388C1.03907 0.113502 1.14976 0.0903692 1.26256 0.0905032Z" fill="#D8D8D8"/>
</svg>
